<svg xmlns="http://www.w3.org/2000/svg" width="100" height="100" viewBox="0 0 100 100">
  <defs>
    <pattern id="particles" x="0" y="0" width="100" height="100" patternUnits="userSpaceOnUse">
      <!-- Small dots -->
      <circle cx="10" cy="10" r="1" fill="#3a86ff" opacity="0.3" />
      <circle cx="30" cy="20" r="0.8" fill="#8338ec" opacity="0.3" />
      <circle cx="50" cy="10" r="1.2" fill="#ff006e" opacity="0.3" />
      <circle cx="70" cy="15" r="0.7" fill="#3a86ff" opacity="0.3" />
      <circle cx="90" cy="10" r="1" fill="#8338ec" opacity="0.3" />
      
      <circle cx="15" cy="30" r="0.9" fill="#ff006e" opacity="0.3" />
      <circle cx="35" cy="25" r="1.1" fill="#3a86ff" opacity="0.3" />
      <circle cx="55" cy="35" r="0.8" fill="#8338ec" opacity="0.3" />
      <circle cx="75" cy="30" r="1" fill="#ff006e" opacity="0.3" />
      <circle cx="95" cy="35" r="0.7" fill="#3a86ff" opacity="0.3" />
      
      <circle cx="10" cy="50" r="1.2" fill="#8338ec" opacity="0.3" />
      <circle cx="25" cy="45" r="0.8" fill="#3a86ff" opacity="0.3" />
      <circle cx="45" cy="55" r="1" fill="#ff006e" opacity="0.3" />
      <circle cx="65" cy="50" r="0.9" fill="#8338ec" opacity="0.3" />
      <circle cx="85" cy="50" r="1.1" fill="#3a86ff" opacity="0.3" />
      
      <circle cx="5" cy="70" r="0.7" fill="#ff006e" opacity="0.3" />
      <circle cx="25" cy="65" r="1" fill="#8338ec" opacity="0.3" />
      <circle cx="45" cy="75" r="0.8" fill="#3a86ff" opacity="0.3" />
      <circle cx="65" cy="70" r="1.2" fill="#ff006e" opacity="0.3" />
      <circle cx="85" cy="65" r="0.9" fill="#8338ec" opacity="0.3" />
      
      <circle cx="10" cy="90" r="1.1" fill="#3a86ff" opacity="0.3" />
      <circle cx="30" cy="85" r="0.7" fill="#ff006e" opacity="0.3" />
      <circle cx="50" cy="95" r="1" fill="#8338ec" opacity="0.3" />
      <circle cx="70" cy="90" r="0.8" fill="#3a86ff" opacity="0.3" />
      <circle cx="90" cy="90" r="1.2" fill="#ff006e" opacity="0.3" />
      
      <!-- Plus signs -->
      <path d="M18,38 L22,38 M20,36 L20,40" stroke="#3a86ff" stroke-width="0.5" opacity="0.3" />
      <path d="M82,22 L86,22 M84,20 L84,24" stroke="#ff006e" stroke-width="0.5" opacity="0.3" />
      <path d="M38,78 L42,78 M40,76 L40,80" stroke="#8338ec" stroke-width="0.5" opacity="0.3" />
      <path d="M78,62 L82,62 M80,60 L80,64" stroke="#3a86ff" stroke-width="0.5" opacity="0.3" />
      
      <!-- Small squares -->
      <rect x="58" y="18" width="2" height="2" fill="#8338ec" opacity="0.3" />
      <rect x="18" y="58" width="2" height="2" fill="#ff006e" opacity="0.3" />
      <rect x="82" y="78" width="2" height="2" fill="#3a86ff" opacity="0.3" />
      <rect x="38" y="38" width="2" height="2" fill="#8338ec" opacity="0.3" />
      
      <!-- Small triangles -->
      <polygon points="92,48 94,52 90,52" fill="#ff006e" opacity="0.3" />
      <polygon points="72,78 74,82 70,82" fill="#3a86ff" opacity="0.3" />
      <polygon points="32,12 34,16 30,16" fill="#8338ec" opacity="0.3" />
      <polygon points="52,58 54,62 50,62" fill="#ff006e" opacity="0.3" />
    </pattern>
  </defs>
  
  <rect x="0" y="0" width="100" height="100" fill="url(#particles)" />
</svg> 